<?xml version="1.0" encoding="utf-8"?>
<!-- Generator: Adobe Illustrator 24.1.0, SVG Export Plug-In . SVG Version: 6.00 Build 0)  -->
<svg version="1.1" id="Layer_1" xmlns="http://www.w3.org/2000/svg" xmlns:xlink="http://www.w3.org/1999/xlink" x="0px" y="0px"
	 viewBox="0 0 160.7 143.6" style="enable-background:new 0 0 160.7 143.6;" xml:space="preserve">
<style type="text/css">
	.st0{fill:url(#SVGID_1_);}
	.st1{fill:url(#SVGID_2_);}
	.st2{fill:url(#SVGID_3_);}
	.st3{fill:url(#SVGID_4_);}
	.st4{fill:#2D913C;}
	.st5{fill:url(#SVGID_5_);}
	.st6{fill:url(#SVGID_6_);}
</style>
<g>
	
		<radialGradient id="SVGID_1_" cx="33.1099" cy="112.1858" r="24.5154" fx="46.2381" fy="118.1139" gradientTransform="matrix(1 0 0 -1 0 146)" gradientUnits="userSpaceOnUse">
		<stop  offset="0.1597" style="stop-color:#5AC35A"/>
		<stop  offset="0.2777" style="stop-color:#6CC456"/>
		<stop  offset="0.5146" style="stop-color:#9BC74A"/>
		<stop  offset="0.8457" style="stop-color:#E6CB37"/>
		<stop  offset="0.9488" style="stop-color:#FFCD31"/>
	</radialGradient>
	<path class="st0" d="M41,30.8c-3.8-6.2-10.7-11-13.3-12.6c-2.8,6.5-6.1,16.8-4.2,19.5c1.3,1.7,6.5,5.5,9.3,7.5
		c0.6,0.4,1.1,0.8,1.5,1.1c0.5,0.4,3.5,2.3,4.9,3v-0.1C42.4,43.5,45.4,37.9,41,30.8z"/>
	
		<radialGradient id="SVGID_2_" cx="22.2064" cy="100.2122" r="20.3646" fx="42.5578" fy="100.9436" gradientTransform="matrix(1 0 0 -1 0 146)" gradientUnits="userSpaceOnUse">
		<stop  offset="0.1597" style="stop-color:#5AC35A"/>
		<stop  offset="1" style="stop-color:#FFCD31"/>
	</radialGradient>
	<path class="st1" d="M21.7,37.4c-6.6,2.1-12.6,7.4-15,9.6c6,2.1,18.3,5.9,21.8,4.5c2.5-1,4.7-2.4,6.8-4.1c0.4-0.4,3-2.9,4-4.1
		l-0.1-0.1C34.3,39,29.6,34.9,21.7,37.4z"/>
	
		<radialGradient id="SVGID_3_" cx="67.9104" cy="59.7656" r="52.5403" gradientTransform="matrix(1 0 0 -1 0 146)" gradientUnits="userSpaceOnUse">
		<stop  offset="2.000783e-02" style="stop-color:#FF6E28"/>
		<stop  offset="0.1944" style="stop-color:#FF7328"/>
		<stop  offset="0.4087" style="stop-color:#FF822A"/>
		<stop  offset="0.6439" style="stop-color:#FF9B2C"/>
		<stop  offset="0.8924" style="stop-color:#FFBE30"/>
		<stop  offset="0.9872" style="stop-color:#FFCD31"/>
	</radialGradient>
	<path class="st2" d="M79.7,114.8c2.3-0.2,4.6-0.7,6.7-1.5c4-1.3,7.4-3.9,9.7-7.4c2.5-4.1,2.9-9.2,2.4-14
		c-1.3-12.4-5.3-24.2-12.4-34.4C83.7,54,81,50.8,78,47.8c-6.2-5.9-14.4-9.2-23-9c-6.2,0-12.3,1.5-17.7,4.5c-0.3,0.1-0.5,0.3-0.8,0.5
		c-11.2,6.6-18,18.8-17.8,31.8c0.3,14.1,9.3,25.2,21.6,31.3c10.6,5.2,22.2,8,34,8.2C76.2,115.1,78,115,79.7,114.8z"/>
	
		<radialGradient id="SVGID_4_" cx="69.4194" cy="80.3199" r="51.4558" fx="69.0443" fy="81.1012" gradientTransform="matrix(1 0 0 -1.0511 0 157.0596)" gradientUnits="userSpaceOnUse">
		<stop  offset="0.4062" style="stop-color:#FF6E28"/>
		<stop  offset="0.481" style="stop-color:#FF7328"/>
		<stop  offset="0.5728" style="stop-color:#FF822A"/>
		<stop  offset="0.6737" style="stop-color:#FF9B2C"/>
		<stop  offset="0.7802" style="stop-color:#FFBE30"/>
		<stop  offset="0.8209" style="stop-color:#FFCD31"/>
	</radialGradient>
	<path class="st3" d="M105,74.7c-0.8-5.2-2.1-10.3-3.8-15.1c-6.6-17.5-22.2-31-37.5-31c-1.5,0-3,0.1-4.5,0.4
		c-8.4,1.6-16.1,6.8-22,14.6c4.8-2.5,10-3.8,15.2-3.8v-0.1c10,0,19.1,4.6,25.6,13c3.2,4.2,6.2,8.8,8.8,13.6
		c7.1,13.1,11.5,28.5,13.2,45.9c0.2-0.1,0.2-0.1,0.2-0.1S109.1,99.5,105,74.7z"/>
	<path class="st4" d="M15.6,55.7l0.1-0.1"/>
	
		<radialGradient id="SVGID_5_" cx="117.845" cy="343.3574" r="86.2951" fx="32.404" fy="331.246" gradientTransform="matrix(1 0 0 1 0 -286)" gradientUnits="userSpaceOnUse">
		<stop  offset="0" style="stop-color:#A22A9C"/>
		<stop  offset="0.196" style="stop-color:#9E2FA1"/>
		<stop  offset="0.437" style="stop-color:#933DB0"/>
		<stop  offset="0.7004" style="stop-color:#8054C9"/>
		<stop  offset="0.8209" style="stop-color:#7661D7"/>
	</radialGradient>
	<path class="st5" d="M99.1,140.9c-4.6,0.1-9-1.6-12.3-4.8c-4.7-4.4-6.7-11.4-4.7-17c1.2-3.5,3.9-6,6.4-8.4c2.1-1.7,3.9-3.8,5.3-6.2
		c1.6-3.1,2.1-7.1,1.3-12c-1.2-7.6-4.3-14.9-7.3-22s-6-14.3-7.4-22.1c-2.7-15.6,1.2-29.2,11-38.1c1.4-1.3,2.9-2.5,4.5-3.5
		c6-3.8,12.9-5.8,19.9-5.8C127.2,1,138,6.2,145,15.2c9.6,12.4,15,29.8,14.7,47.8c-0.5,30.7-18.8,60.3-45.4,73.7
		C108.7,139.5,103.6,140.9,99.1,140.9L99.1,140.9z"/>
	
		<radialGradient id="SVGID_6_" cx="94.8852" cy="22.72" r="34.1893" fx="80.6938" fy="34.5825" gradientTransform="matrix(1 0 0 -1 0 146)" gradientUnits="userSpaceOnUse">
		<stop  offset="0.1597" style="stop-color:#5AC35A"/>
		<stop  offset="0.8494" style="stop-color:#FFCD31"/>
	</radialGradient>
	<path class="st6" d="M114.3,137c-9.1,4.6-20.1,9.1-28.3,1.4c-0.4-0.4-8.1,3.4-10,1.2c-2.9-4.2,7.1-7.2,6.1-9.2
		c-1.7-3.4-2-7.4-0.9-11c2.3-6.4,9.4-9.6,12.6-15.4c0,0,3.4,14.4-2.2,20c4.7-2,9-4.9,12.7-8.5c0,0,0,12.7-6.4,17.7
		C102.4,131.9,108.4,134.5,114.3,137z"/>
</g>
</svg>
