<svg xmlns="http://www.w3.org/2000/svg" xmlns:xlink="http://www.w3.org/1999/xlink" viewBox="0 0 304.92 39.07"><defs><style>.cls-1{fill:url(#linear-gradient);}.cls-2{fill:#222;}</style><linearGradient id="linear-gradient" x1="175.09" y1="32.6" x2="191.4" y2="3.36" gradientUnits="userSpaceOnUse"><stop offset="0" stop-color="#ff6e28"/><stop offset="1" stop-color="#ffe13c"/></linearGradient></defs><g id="Layer_2" data-name="Layer 2"><g id="Layer_1-2" data-name="Layer 1"><path class="cls-1" d="M189,29.44c-.94-.94-1.89-1.93-2.79-2.88a11.94,11.94,0,0,1-8.73,3.53c-5.67,0-9.67-3.27-9.67-8,0-4.08,3.18-6.31,6.62-8-1.85-1.94-3.27-3.91-3.27-6.71C171.17,3,175.09,0,179.94,0c4.69,0,8.77,3.05,8.77,7.26,0,3.87-3.31,5.76-6.19,7.61l-.3.22c1.16,1.33,2.36,2.62,3.61,3.95a52.91,52.91,0,0,0,2.88-4.64h5.93a88.35,88.35,0,0,1-5.33,8.34c2.07,2.15,4.21,4.34,6.54,6.7Zm-6.19-6.53c-1.59-1.72-3.26-3.53-5.07-5.42C175.6,18.7,174,19.81,174,21.7c0,2.15,1.81,3.31,4,3.31A6.07,6.07,0,0,0,182.82,22.91Zm-3.61-11.18c2-1.11,3.53-2.32,3.53-4.08a2.7,2.7,0,0,0-2.84-2.58,2.61,2.61,0,0,0-2.75,2.8C177.15,9.11,178,10.36,179.21,11.73Z"/><path class="cls-2" d="M5.43,13.56H17V18H5.43V24.3H18.52v4.81H0V2.93H18.52V7.62H5.43Z"/><path class="cls-2" d="M36.77,11.61V9.38h5V28.6c0,6.68-5.15,10.47-11,10.47A14.42,14.42,0,0,1,23,37V32.27a15.92,15.92,0,0,0,7.46,2.23c3.52,0,6.33-2.19,6.33-5.28V25.79a7.3,7.3,0,0,1-6.33,3.9c-4.72,0-8.82-3.75-8.82-10.31S25.72,8.87,30.8,8.87A8.44,8.44,0,0,1,36.77,11.61Zm-10,7.77c0,3,2,5.31,4.92,5.31,2.62,0,5.12-2.15,5.08-5.7V16.18a6.78,6.78,0,0,0-5-2.43C28.73,13.75,26.77,16.41,26.77,19.38Z"/><path class="cls-2" d="M60.57,11.61V9.38h5V28.6c0,6.68-5.16,10.47-11,10.47A14.38,14.38,0,0,1,46.78,37V32.27a15.92,15.92,0,0,0,7.46,2.23c3.52,0,6.33-2.19,6.33-5.28V25.79a7.3,7.3,0,0,1-6.33,3.9c-4.73,0-8.83-3.75-8.83-10.31s4.1-10.51,9.18-10.51A8.46,8.46,0,0,1,60.57,11.61Zm-10,7.77c0,3,2,5.31,4.92,5.31,2.62,0,5.12-2.15,5.08-5.7V16.18a6.81,6.81,0,0,0-5-2.43C52.52,13.75,50.57,16.41,50.57,19.38Z"/><path class="cls-2" d="M90.43,19.11c0,6.56-4.1,10.58-9.18,10.58a8.53,8.53,0,0,1-6-2.81v11.6h-5V9.38h5V12.7A7.12,7.12,0,0,1,81.6,8.87C86.33,8.87,90.43,12.5,90.43,19.11Zm-15.15.35v2.85a7,7,0,0,0,5,2.54c3.08,0,5-2.81,5-5.74s-2-5.28-4.93-5.28A5.21,5.21,0,0,0,75.28,19.46Z"/><path class="cls-2" d="M94.09,29.11V1h5V29.11Z"/><path class="cls-2" d="M117.86,11.61V9.38h5V29.11h-5V25.79a7.29,7.29,0,0,1-6.32,3.9c-4.73,0-8.83-3.75-8.83-10.31s4.1-10.51,9.18-10.51A8.42,8.42,0,0,1,117.86,11.61Zm-10,7.77c0,3,2,5.35,4.93,5.35,2.61,0,5.11-2.19,5.07-5.74V16.18a6.83,6.83,0,0,0-5-2.47C109.82,13.71,107.86,16.41,107.86,19.38Z"/><path class="cls-2" d="M145.62,17V29.11h-5l0-11.45c0-2.66-1.37-3.95-3.6-3.95-1.75,0-3.32,1.33-4.45,2.9v12.5h-5V9.38h5v2.81a7.79,7.79,0,0,1,6-3.32C142.57,8.87,145.62,11.61,145.62,17Z"/><path class="cls-2" d="M162.12,9.38v4.14h-5.47V22c0,1.75.82,2.85,2.43,2.85a5.77,5.77,0,0,0,3.24-.9v3.94a6.18,6.18,0,0,1-4.65,1.76c-3.52,0-6-2.42-6-6.37v-9.8h-3.55V11c2.54-.9,4.72-3.32,6-7.34h2.54V9.38Z"/><path class="cls-2" d="M210.1,2.93c4.89,0,9.89,3.56,9.89,9.34,0,5.35-4.53,9-9.77,9a12.8,12.8,0,0,1-5.51-1.17v9h-5.43V2.93Zm4.34,9.34C214.44,9.54,212,8,209.21,8h-4.5v7.74a13.34,13.34,0,0,0,4.61.86C212.45,16.61,214.44,14.69,214.44,12.27Z"/><path class="cls-2" d="M240.93,20.75H226.64a5.55,5.55,0,0,0,5.78,4.45,10.62,10.62,0,0,0,6-1.8v4.49a10.44,10.44,0,0,1-6.21,1.8,10.25,10.25,0,0,1-10.58-10.23c0-5.75,4.22-10.59,10-10.59s9.29,4.06,9.29,9.81Zm-4.76-3.25a4.46,4.46,0,0,0-4.65-4.29c-2.5,0-4.22,1.68-4.8,4.29Z"/><path class="cls-2" d="M258.4,11.61V9.38h5V29.11h-5V25.79a7.3,7.3,0,0,1-6.33,3.9c-4.73,0-8.83-3.75-8.83-10.31s4.1-10.51,9.18-10.51A8.46,8.46,0,0,1,258.4,11.61Zm-10,7.77c0,3,1.95,5.35,4.92,5.35,2.62,0,5.12-2.19,5.08-5.74V16.18a6.86,6.86,0,0,0-5-2.47C250.35,13.71,248.4,16.41,248.4,19.38Z"/><path class="cls-2" d="M283.08,10.94v4.57a8.75,8.75,0,0,0-5.39-1.76,5.5,5.5,0,0,0-5.51,5.59,5.35,5.35,0,0,0,5.51,5.55,8.74,8.74,0,0,0,5.39-1.72V27.7a8.55,8.55,0,0,1-5.82,2,10.41,10.41,0,0,1,0-20.82A8.74,8.74,0,0,1,283.08,10.94Z"/><path class="cls-2" d="M304.92,17V29.11h-5l0-11.45c0-2.66-1.37-3.95-3.6-3.95-1.76,0-3.32,1.33-4.45,2.9v12.5h-5V1h5V12.19a7.79,7.79,0,0,1,6-3.32C301.87,8.87,304.92,11.61,304.92,17Z"/></g></g></svg>